PathFileType   4   (X/Y/Z)
DataRate	CameraRate	NumFrames	NumMarkers	Units	OrigDataRate	OrigDataStartFrame	OrigNumFrames
120.0	120.0	9	37	mm	120.0	14	96
Frame#	Time	midhip	hip_r	hip_l	knee_r	knee_l	ankle_r	ankle_l	midasis	asis_r	asis_l	psis_r	psis_l	epicondLat_r	epicondLat_l	epicondMed_r	epicondMed_l	malleolusLat_r	malleolusLat_l	malleolusMedv_r	malleolusMedv_l	neck	subclavicle_r	subclavicle_l	sternalnotch	xyphoidprocess	thighwand_r	thighwand_l	upperleg1_r	upperleg1_l	upperleg2_r	upperleg2_l	shankwand_r	shankwand_l	lowerleg1_r	lowerleg1_l	toe_r	toe_l
 	 	X1	Y1	Z1	X2	Y2	Z2	X3	Y3	Z3	X4	Y4	Z4	X5	Y5	Z5	X6	Y6	Z6	X7	Y7	Z7	X8	Y8	Z8	X9	Y9	Z9	X10	Y10	Z10	X11	Y11	Z11	X12	Y12	Z12	X13	Y13	Z13	X14	Y14	Z14	X15	Y15	Z15	X16	Y16	Z16	X17	Y17	Z17	X18	Y18	Z18	X19	Y19	Z19	X20	Y20	Z20	X21	Y21	Z21	X22	Y22	Z22	X23	Y23	Z23	X24	Y24	Z24	X25	Y25	Z25	X26	Y26	Z26	X27	Y27	Z27	X28	Y28	Z28	X29	Y29	Z29	X30	Y30	Z30	X31	Y31	Z31	X32	Y32	Z32	X33	Y33	Z33	X34	Y34	Z34	X35	Y35	Z35	X36	Y36	Z36	X37	Y37	Z37

	14	0.20000	662.367	628.880	-250.542	670.885	642.282	-197.786	666.034	637.702	-315.041	696.011	343.603	-213.201	723.358	339.768	-331.072	665.812	53.387	-218.528	531.373	140.244	-294.292	718.480	697.257	-260.720	722.110	700.684	-172.992	714.850	693.831	-348.447	586.267	733.188	-211.513	584.806	722.806	-293.643	699.255	341.510	-167.363	711.878	340.066	-377.678	677.495	344.878	-250.144	754.602	332.611	-298.641	663.160	53.050	-185.135	514.257	152.115	-319.240	659.516	57.177	-245.129	539.277	140.605	-260.325	667.627	1038.085	-263.011	762.846	970.771	-221.371	762.117	970.451	-313.127	747.472	982.915	-259.246	792.439	848.708	-264.487	803.457	436.239	-240.598	750.425	431.504	-449.057	737.500	484.211	-179.232	759.818	481.905	-363.709	727.616	397.096	-182.136	778.831	400.610	-354.485	702.908	144.180	-114.075	673.667	147.851	-322.727	692.301	194.714	-175.422	661.871	227.475	-327.244	750.376	39.487	-226.713	566.031	69.999	-317.344
	15	0.20833	674.039	630.849	-251.369	682.017	643.786	-198.495	678.324	640.060	-315.822	697.603	343.735	-212.821	744.001	343.336	-332.808	666.347	53.636	-218.516	562.959	134.369	-296.744	730.293	699.160	-260.554	733.054	701.946	-172.833	727.532	696.374	-348.274	597.976	734.675	-212.047	597.093	725.216	-294.760	700.485	341.695	-166.957	733.114	343.602	-379.557	678.367	342.676	-251.103	775.107	338.002	-300.443	663.255	53.315	-185.161	545.169	145.499	-321.560	659.511	57.636	-244.997	570.970	135.026	-262.783	679.366	1039.755	-263.502	774.887	972.756	-222.375	774.104	972.249	-313.651	759.152	984.780	-260.059	804.821	850.695	-265.021	807.519	432.771	-239.641	770.276	436.776	-450.574	734.005	481.883	-176.944	777.414	487.716	-364.821	725.194	395.162	-180.785	798.350	406.786	-355.685	702.431	144.401	-113.587	704.275	149.510	-325.523	692.617	195.038	-175.022	686.515	228.193	-329.327	750.535	39.454	-226.587	602.021	67.295	-320.601
	16	0.21667	685.888	632.340	-252.251	693.450	644.953	-199.220	690.691	641.992	-316.596	699.342	343.909	-212.565	764.290	346.545	-334.385	666.882	53.953	-218.574	595.124	128.098	-299.339	742.189	700.753	-260.531	744.252	702.965	-172.820	740.127	698.541	-348.242	609.724	735.622	-212.605	609.359	727.156	-295.945	701.854	341.924	-166.677	753.995	346.803	-381.267	680.421	345.985	-248.665	795.054	343.230	-302.015	663.361	53.657	-185.261	576.770	138.335	-324.130	659.299	58.123	-244.911	603.273	129.030	-265.447	691.161	1041.103	-263.932	786.849	974.568	-223.282	785.230	973.762	-314.693	770.897	986.279	-260.882	816.549	852.407	-265.879	811.770	429.332	-238.782	789.825	441.603	-451.866	748.468	482.735	-179.019	793.954	493.091	-366.413	733.048	395.447	-180.900	817.221	412.554	-356.854	702.030	144.678	-113.198	735.211	151.224	-327.882	693.073	195.343	-174.746	715.427	229.219	-331.473	750.722	39.429	-226.476	638.565	64.458	-323.887
	17	0.22500	697.894	633.463	-253.141	705.061	645.755	-199.991	703.080	643.469	-317.397	701.310	344.108	-212.417	784.220	349.343	-335.798	667.425	54.326	-218.697	627.838	121.551	-302.091	754.112	701.986	-260.655	755.591	703.694	-172.965	752.633	700.279	-348.344	621.437	736.098	-213.298	621.600	728.578	-297.221	703.429	342.190	-166.506	774.500	349.602	-382.802	685.883	344.652	-248.305	813.945	348.175	-302.947	663.484	54.066	-185.430	609.047	130.773	-326.953	659.205	58.655	-244.952	636.136	122.738	-268.311	702.936	1042.136	-264.301	798.834	975.966	-224.279	795.424	974.469	-315.333	782.513	987.333	-261.544	827.378	853.404	-266.360	816.214	425.931	-237.962	809.006	445.892	-452.927	753.150	481.462	-178.937	809.875	497.891	-368.114	738.161	394.971	-180.520	835.358	417.644	-357.616	701.731	144.995	-112.899	766.376	153.026	-329.856	693.523	195.646	-174.622	743.088	229.916	-333.554	750.937	39.411	-226.373	675.591	61.602	-327.236
	18	0.23333	709.914	634.189	-254.107	716.779	646.185	-200.797	715.457	644.469	-318.222	703.576	344.316	-212.360	803.774	351.684	-337.043	667.990	54.741	-218.879	661.072	114.845	-305.030	766.033	702.828	-260.912	767.020	704.108	-173.268	765.047	701.547	-348.555	633.012	736.182	-214.219	633.812	729.457	-298.614	705.261	342.483	-166.427	794.601	351.945	-384.157	688.609	344.991	-248.121	831.625	352.448	-303.228	663.632	54.529	-185.665	641.977	122.969	-330.043	659.742	59.180	-245.127	669.502	116.212	-271.352	714.648	1042.690	-264.692	810.924	976.837	-225.313	804.000	974.132	-314.734	794.120	987.944	-262.165	836.798	853.464	-266.021	820.900	422.560	-237.122	827.772	449.568	-453.753	758.909	480.431	-179.018	825.855	501.866	-369.268	741.655	394.304	-180.218	852.820	421.944	-357.779	701.547	145.344	-112.682	797.659	154.952	-331.530	694.150	196.051	-174.607	769.997	230.300	-335.435	751.185	39.398	-226.278	713.037	58.844	-330.661
	19	0.24167	721.890	634.561	-255.103	728.483	646.235	-201.642	727.776	644.982	-319.078	706.191	344.517	-212.380	822.921	353.538	-338.113	668.591	55.193	-219.119	694.803	108.102	-308.195	777.893	703.250	-261.275	778.421	704.185	-173.705	777.366	702.315	-348.845	644.449	735.909	-215.401	645.990	729.783	-300.141	707.388	342.793	-166.428	814.267	353.797	-385.326	692.021	345.056	-248.626	849.152	355.750	-303.531	663.813	55.041	-185.962	675.536	115.084	-333.420	660.769	59.676	-245.345	703.453	109.527	-274.600	726.375	1042.817	-265.179	822.970	977.134	-226.204	819.893	975.416	-317.079	805.815	988.111	-262.816	852.564	854.695	-267.820	825.820	419.222	-236.214	846.097	452.582	-454.342	764.047	479.085	-178.905	841.992	504.928	-369.823	745.071	393.660	-180.071	870.041	425.598	-357.830	701.479	145.718	-112.539	828.935	157.052	-333.011	695.072	196.537	-174.597	796.621	230.415	-337.040	751.469	39.387	-226.196	750.850	56.313	-334.159
	20	0.25000	733.546	634.380	-256.255	740.128	645.921	-202.502	740.018	645.011	-319.944	709.187	344.704	-212.471	841.638	354.893	-339.005	669.231	55.681	-219.414	729.020	101.446	-311.627	789.674	703.253	-261.717	789.756	703.930	-174.241	789.592	702.575	-349.192	655.752	735.323	-216.888	658.132	729.566	-301.806	709.837	343.116	-166.503	833.476	355.142	-386.306	696.947	343.506	-249.393	867.763	358.230	-304.024	664.025	55.606	-186.321	709.696	107.281	-337.098	661.480	60.422	-245.879	737.699	102.918	-278.047	738.180	1042.541	-265.754	834.975	976.852	-226.978	827.299	973.384	-315.900	817.567	987.812	-263.445	860.495	853.132	-266.630	831.000	415.916	-235.206	863.966	454.905	-454.692	767.143	476.933	-178.385	857.854	507.228	-370.163	748.755	393.055	-179.855	887.523	428.703	-358.048	701.523	146.121	-112.471	860.069	159.393	-334.417	696.166	196.919	-174.595	824.063	230.666	-339.067	751.788	39.377	-226.135	788.969	54.149	-337.711
	21	0.25833	745.099	633.761	-257.376	751.643	645.252	-203.380	752.177	644.575	-320.822	712.576	344.872	-212.630	859.911	355.755	-339.715	669.904	56.215	-219.759	763.707	95.016	-315.350	801.346	702.844	-262.210	800.948	703.347	-174.834	801.744	702.341	-349.585	666.961	734.429	-218.650	670.241	728.824	-303.608	712.620	343.450	-166.652	852.211	355.981	-387.093	697.630	346.085	-249.148	886.974	360.083	-304.478	664.262	56.233	-186.737	744.423	99.726	-341.084	661.902	61.223	-246.676	772.039	96.508	-281.763	750.091	1041.848	-266.312	846.987	976.219	-227.723	838.906	972.362	-316.503	829.330	987.074	-264.020	872.187	852.294	-266.886	836.418	412.651	-234.090	881.366	456.527	-454.802	775.422	476.417	-178.696	873.319	508.836	-370.382	751.450	392.329	-179.538	905.033	431.225	-358.283	701.676	146.562	-112.482	890.925	162.052	-335.843	697.412	197.250	-174.687	852.382	231.129	-341.611	752.132	39.369	-226.102	827.328	52.497	-341.298
	22	0.26667	756.593	632.752	-258.484	763.057	644.250	-204.273	764.304	643.700	-321.710	716.356	345.020	-212.861	877.736	356.148	-340.241	670.594	56.804	-220.149	798.827	88.969	-319.374	812.938	702.057	-262.741	812.011	702.465	-175.456	813.865	701.648	-350.026	678.125	733.215	-220.637	682.327	727.592	-305.536	715.741	343.796	-166.881	870.455	356.334	-387.685	698.247	348.560	-249.169	904.914	361.287	-304.488	664.512	56.937	-187.206	779.665	92.598	-345.371	662.730	61.805	-247.131	806.887	90.237	-285.819	762.013	1040.822	-266.883	858.831	975.204	-228.343	854.696	972.276	-318.656	841.126	985.944	-264.597	887.423	852.087	-268.380	842.092	409.425	-232.884	898.278	457.449	-454.671	782.822	475.614	-178.700	888.188	509.636	-370.428	753.276	391.451	-179.109	921.649	432.958	-358.109	701.941	147.049	-112.577	921.380	165.102	-337.341	698.948	197.708	-174.887	879.233	231.203	-343.578	752.484	39.363	-226.104	865.838	51.502	-344.901
